<?xml version="1.0" encoding="UTF-8"?>
<svg width="25pt" height="25pt" version="1.1" viewBox="0 0 100 100" xmlns="http://www.w3.org/2000/svg">
 <path d="m87.672 64.355c7.6328 9.4492-1.4531 15.746-13.566 17.078-1.332 0.24219-2.543 0.24219-3.6328 0-0.85156 3.2695-3.0273 5.5703-7.1445 6.3008-3.3945 0.72656-5.4531-0.72656-6.4219-3.7539-1.6953 3.0273-3.5156 4.8438-5.2109 4.8438l-1.6953 6.1758-1.6953-6.1797c-1.6953 0-3.6367-1.8164-5.2109-4.8438-1.0898 3.0273-3.0273 4.4805-6.4219 3.7539-4.1172-0.72656-6.3008-3.0273-7.2695-6.3008-1.0898 0.24219-2.1797 0.24219-3.5117 0-12.113-1.332-21.199-7.2695-13.566-17.078l18.289-23.742c-5.207-0.96875-12.355-1.332-15.746-0.36328v-1.6953c5.0898-1.8164 12.598-1.9375 17.805-0.72656l2.6641-3.3906-0.12109-0.12109c-7.0234-0.84766-13.445-4.1172-13.324-9.9336l1.332-0.72656c0.24219 4.8438 5.207 6.0586 10.656 6.3008 0.72656-2.4219 2.9062-3.875 5.3281-4.7227 4.3594-1.4531 6.418-0.96875 10.781-0.96875 4.3594 0 6.4219-0.48438 10.781 0.96875 2.4258 0.84766 4.6055 2.3008 5.3281 4.7227 5.4492-0.24219 10.418-1.4531 10.66-6.3008l1.2109 0.72656c0.12109 6.1797-6.9023 9.4492-14.414 10.055l2.9062 3.6328c5.2109-1.4531 13.324-1.4531 18.652 0.48438v1.6953c-3.6328-0.96875-11.266-0.60547-16.473 0.48438zm-52.57-13.086v-1.6953c-3.5117 3.3906-13.445 18.895-13.445 25.074h-2.3008c0-8.7227 10.656-24.832 15.625-28.828l0.12109-4.1172c-0.48437-0.12109-1.0898-0.36328-1.8164-0.48438-17.199 23.5-30.523 33.555-7.1445 38.035 1.0898 0.24219 2.0586 0.24219 2.9062 0-0.85156-7.3906 2.9023-18.414 6.0547-27.984zm-4.3633 27.258c4.2383-2.7852 4.6055-11.629 4.4805-20.953-2.418 7.2656-5.0859 15.379-4.4805 20.953zm11.148 3.2695c-1.8164-4.2383-4.2383-9.4492-4.8477-15.262-0.60547 7.7539-1.5742 12.598-5.6914 14.414 0.84766 2.1797 2.543 3.7539 5.4492 4.2383 2.7852 0.60547 4.3594-0.72656 5.0898-3.3906zm-2.7891-44.453h-1.332c-1.6953 15.02-0.36328 28.828 4.9648 43 2.9102-12.84-0.96484-29.68-3.6328-43zm5.2109-21.562c-1.2109-3.2695-0.96875-8.2383-2.6641-10.781h1.2109c1.9375 2.9062 2.3008 7.2695 3.5117 10.297 1.0938-0.24219 2.3047-0.36328 3.6367-0.60547 1.332 0.24219 2.543 0.36328 3.6328 0.60547 1.332-3.0273 1.5742-7.3906 3.5078-10.297h1.2109c-1.6953 2.543-1.4531 7.3906-2.6641 10.781 9.207 2.4219 7.1445 5.9375 4.9648 7.7539-1.8164 1.0898-0.60547 0-10.66-0.84766-10.055 0.84766-8.8438 1.9375-10.66 0.84766-2.1758-1.6992-4.1133-5.332 4.9727-7.7539zm-6.543 35.613c-0.24219-2.1797-0.24219-3.6328 0-4.8438h2.0586l0.84766 4.8438zm1.9375 14.172c-0.60547-1.5742-0.84766-3.2695-0.96875-5.207h3.3906c0.36328 1.6953 0.60547 3.3906 0.60547 5.207zm-0.72656-44.941c0 1.2109 2.0586 2.1797 2.9062 2.1797 0.96875 0 0.48438-0.60547 0.48438-1.8164 0-1.2109 0.48437-3.0273-0.48438-3.0273-0.84766 0-2.9062 1.4531-2.9062 2.6641zm1.5742 16.961c0.48438 2.9062 1.332 6.7812 1.9375 8.9648l7.5117 0.11719 7.3906-0.12109c0.60547-2.1797 1.4531-6.0586 1.9375-8.9648l-9.3281-0.11719zm1.8164 39.973c-0.60547-1.5742-1.0898-3.2695-1.2109-5.207h1.6953c0 2.0586-0.24219 3.3906-0.24219 5.207zm12.723-17.203c0.48438-1.9375 0.96875-5.6914 1.4531-8.9648l-13.082 0.003906c0.48437 3.2695 0.84766 7.0273 1.4531 8.9648zm-0.36328 17.203h-9.4492c-1.6992 3.6328-1.0898 7.8711 4.7227 7.8711s6.3008-4.2383 4.7266-7.8711zm-0.36719-5.332c0-2.543-0.24219-3.0273-0.24219-6.6641h-8.2383c0 3.6328-0.24219 3.9961-0.24219 6.7852l4.3633-0.12109zm6.4219-34.883c-2.6641 13.324-6.4219 30.16-3.5117 43 5.3281-14.172 6.6641-27.98 4.9648-43zm-3.5117 40.215c0-1.8164-0.24219-3.1484-0.24219-5.207h1.6953c-0.12109 1.9375-0.60547 3.6328-1.2109 5.207zm0-11.992c0-1.8164 0.24219-3.5117 0.60547-5.207h3.3906c-0.12109 1.9375-0.36328 3.6328-0.96875 5.207zm11.262 15.383c-3.9961-1.8164-4.9648-6.6641-5.5703-14.414-0.60547 5.8125-3.1484 11.023-4.9688 15.262 0.72656 2.6641 2.3008 3.9961 5.2109 3.3906 2.9062-0.48438 4.6016-2.0586 5.3281-4.2383zm-10.176-59.961c0 1.2109-0.48438 1.8164 0.48438 1.8164 0.84766 0 2.9062-0.96875 2.9062-2.1797s-2.0586-2.6641-2.9062-2.6641c-0.96875 0-0.48438 1.8164-0.48438 3.0273zm3.7578 25.559c0.24219 1.2109 0.24219 2.6641 0 4.8438h-3.0273l0.84766-4.8438zm2.543 11.023c-0.12109 9.3281 0.24219 18.168 4.4805 20.953 0.60547-5.5703-2.0586-13.684-4.4805-20.953zm1.9375-16.352-1.6953 0.48438c0.12109 1.332 0.12109 2.6641 0.12109 4.2383 5.0859 3.9961 15.625 19.984 15.625 28.707h-2.3008c0-6.2969-9.9336-22.047-13.445-25.074l-0.12109 1.6953c3.1484 9.5703 7.0234 20.594 6.0586 27.98 0.96875 0.24219 1.9375 0.24219 3.0273 0 23.496-4.4805 10.051-14.531-7.2695-38.031z" fill="#b28c52"/>
</svg>
